<?xml version="1.0" encoding="utf-8"?>
<!-- Svg Vector Icons : http://www.onlinewebfonts.com/icon -->
<!DOCTYPE svg PUBLIC "-//W3C//DTD SVG 1.1//EN" "http://www.w3.org/Graphics/SVG/1.1/DTD/svg11.dtd">
<svg version="1.1" xmlns="http://www.w3.org/2000/svg" xmlns:xlink="http://www.w3.org/1999/xlink" x="0px" y="0px" viewBox="0 0 1000 1000" enable-background="new 0 0 1000 1000" xml:space="preserve">
<metadata> Svg Vector Icons : http://www.onlinewebfonts.com/icon </metadata>
<g><g transform="translate(0.000000,511.000000) scale(0.100000,-0.100000)"><path d="M3267.9,4909.6C1870.9,4332.4,830.1,3224.1,366.5,1824.1C96.4,1007.4,35,279.8,167-558.4C455.6-2360.6,1754.3-3911,3488.9-4512.7C5014.8-5043.9,6718.8-4801.4,8042-3865c328.5,230.3,927.2,813.6,1136,1102.2c365.4,506.6,779.8,1347.8,715.4,1449.1c-73.7,116.7-159.7,76.8-448.2-202.6C8800.3-2139.5,8042-2517.1,7136.3-2661.4c-319.3-52.2-1031.6-43-1384.7,15.4c-881.1,150.4-1654.8,552.6-2299.6,1197.4C2819.6-819.3,2411.3-39.5,2251.6,838.6c-70.6,383.8-70.6,1114.5-3.1,1482.9c159.7,868.9,564.9,1654.8,1160.5,2256.6c236.4,242.6,279.4,325.4,205.7,399.1C3562.6,5029.3,3544.2,5026.3,3267.9,4909.6z M2948.6,4439.9c-426.7-552.6-706.1-1117.5-862.7-1740.8C1570,654.3,2531-1467.2,4419.2-2443.5c574.1-297.8,1074.6-439,1737.7-494.3c1102.2-89,2195.2,242.5,3140.8,954.8l138.2,104.4l-122.8-227.2c-181.2-340.8-555.7-816.7-881.2-1129.8c-970.2-924.1-2299.6-1400-3641.2-1298.7c-853.5,64.5-1657.9,337.7-2327.2,789C833.2-2649.2,31.9-647.4,455.6,1271.5c288.6,1301.8,1142.1,2465.3,2287.3,3110.1c138.2,76.8,254.8,141.2,257.9,141.2C3006.9,4522.8,2982.3,4485.9,2948.6,4439.9z"/></g></g>
</svg>